<?xml version="1.0" encoding="utf-8"?>
<svg viewBox="133.3448 24.95 42.8505 43.24" xmlns="http://www.w3.org/2000/svg">
  <defs>
    <style>.cls-yum-logo-lockup-1 {fill: #5b2994;}.cls-yum-logo-lockup-2 {fill: #e1172b;}.cls-yum-logo-lockup-3 {fill: #c8132e;}.cls-yum-logo-lockup-4 {fill: #fff;}.cls-yum-logo-lockup-5 {fill: #fca201;}.cls-yum-logo-lockup-6 {fill: #1d1819;}.cls-yum-logo-lockup-7 {fill: #ea3724;}</style>
  </defs>
  <path class="cls-yum-logo-lockup-4" d="M138.43,67.94c-.9,0-1.67-.71-1.74-1.62l-3.08-39.2c-.04-.49.13-.97.46-1.33.33-.36.8-.57,1.28-.57h38.84c.49,0,.95.21,1.28.57.33.36.5.84.46,1.33l-3.08,39.2c-.07.91-.84,1.62-1.74,1.62h-32.68Z"/>
  <path class="cls-yum-logo-lockup-6" d="M174.19,24.95h-38.84c-.56,0-1.1.24-1.47.65-.38.41-.57.97-.53,1.53l3.08,39.2c.08,1.04.96,1.86,2,1.86h32.68c1.04,0,1.92-.82,2-1.86l3.08-39.2c.04-.56-.15-1.12-.53-1.53-.38-.41-.92-.65-1.47-.65M174.19,25.48c.87,0,1.55.74,1.48,1.61l-3.08,39.2c-.06.78-.71,1.38-1.48,1.38h-32.68c-.77,0-1.42-.6-1.48-1.38l-3.08-39.2c-.07-.87.61-1.61,1.48-1.61h38.84Z"/>
  <g>
    <path class="cls-yum-logo-lockup-7" d="M144.32,26.6h-8.6c-.42,0-.75.36-.72.78l2.2,27.98h7.12v-28.76Z"/>
    <path class="cls-yum-logo-lockup-7" d="M173.83,26.6h-8.6v28.76h7.12l2.2-27.98c.03-.42-.3-.78-.72-.78Z"/>
  </g>
  <path class="cls-yum-logo-lockup-6" d="M149.81,44.54c.01.54.32,1.97,2.12,3.32.75.56,1.09.82,1.19.89h0s-.27.03-.35.04c-.14.01-.62-.03-1,.04-.35.06-.3.15-.33.4-.03.2,0,.52-.01.79-.01.27-.03.46.09.59.11.13.18.15.66.12.45-.03,1.7-.03,1.85-.06.19-.04.16.03.05.27-.19.41-.81,2.31-1.78,4.11-.14.25.25.13.57.29.59.29.57.37.72.07.17-.32,1.02-2.34,1.15-2.97.02-.08.05-.15.06-.03,0,.09.02,2.64-.05,3.44,0,.04,0,.09.04.12.04.04.11.06.16.08,0,0,0,0,0,0,.29-.1.65-.17.95-.12.03,0,.05,0,.08-.02.02-.01.03-.03.04-.05.02-.04.04-.09.05-.14,0,0,0,0,0-.01.01-.07.03-.14.03-.21,0-.04,0-.08,0-.12,0-.05,0-.11,0-.16,0-.06,0-.13,0-.19,0-.07,0-.15,0-.22,0-.08,0-.17,0-.25,0-.09,0-.06,0-.15,0-.1,0-.19-.01-.29,0-.1,0-.2-.02-.31,0-.11-.01-.21-.02-.32,0-.11-.02-.22-.03-.33,0-.11-.02-.22-.03-.33-.01-.11-.02-.22-.04-.33-.01-.11-.03-.22-.04-.33-.02-.11-.03-.22-.05-.33-.02-.11-.04-.15-.06-.26-.02-.1-.04-.2-.07-.3-.02-.1-.05-.19-.08-.29-.02-.08-.04-.15-.07-.23,0-.01-.02-.12-.02-.13,0-.04.05-.01.1-.02,0,0,.02,0,.04,0,.32-.04.88-.01,1.01,0,.12,0,.76.07.94.08.18.02.39.06.38-.49,0-.15,0-.23,0-.37,0-.02,0-.04,0-.06,0-.03,0-.07,0-.1,0-.02,0-.04,0-.06,0-.02,0-.04,0-.05,0-.02,0-.03,0-.05,0-.03,0-.06,0-.08,0,0,0-.02,0-.02,0-.02,0-.04,0-.05,0,0,0-.02,0-.02,0-.02,0-.03,0-.04,0,0,0,0,0-.01,0-.02,0-.03,0-.05,0-.13-.01-.38-.26-.44-.29-.07-.79-.09-1.25-.05-.06,0-.08,0-.06-.02h0c.1-.07.75-.44,1.51-1.12.83-.75,1.22-1.15,1.47-1.69,0,0,.9-1.77.86-3.27,0-.3.04-.28.23-.27.06,0,.27-.01.38-.09.38-.09.72-1.41.72-1.41,0,0,.58-2.01.72-2.83.12-.73.09-1.16-.35-1.37l-.07-.04s-.05-.06-.04-.1c0-.03.02-.07.02-.09.22-.76.6-1.71.51-2.1-.02-.11-.11-.15-.14-.17-.04-.03-.22-.22-.26-.36,0-.02,0-.04-.01-.06-.12-1.43-.62-3.22-2.12-4.78,0,0-.1-.09-.16-.15-.13-.12-.29-.26-.48-.4-.4-.3-.72-.53-1.37-.86-.05-.03-.54-.25-1.27-.43-.07-.02-.14-.04-.21-.05-.11-.03-.27-.06-.46-.08-.45-.07-.95-.11-1.46-.08h0c-.06,0-.13,0-.15,0-.03,0-.06,0-.1,0-.04,0-.07,0-.11,0-.11,0-.25.02-.41.04-.24.04-.51.09-.67.12-.18.04-.43.1-.73.18-.13.04-.25.08-.38.12-.04.01-.07.02-.11.03-.14.05-.27.09-.41.14-.1.04-.52.22-.62.26-.04.02-.11.05-.17.07-.3.1-.36.27-.37.37,0,.06-.02.12-.05.18-.43.92-1.45,1.01-1.85,1.03-.11,0-.2.02-.17.12.09.27.56.76.85.85,0,.04-.25.1-.3.11-.12.03-.6-.01-.62,0,0,0,0,0,0,0-.54.05-.71.42-.76.6-.02.06,0,.11.02.16.12.19.25.34.34.58,0,0,0,0,0,0,.02.06.05.14.07.21.01.1.09.21-.01.42-.19.36-.65.48-.72.84-.1.51.08.85.27,1.7.13.58.27,1.18.38,1.46,0,.01,0,.03-.02.03-.04,0-.11.02-.14.03-.27.11-.35.32-.38.74-.07.92.61,2.35.82,3.57.07.41.26,1.07.57,1.34.07.06.22.1.32.12.24.04.35-.11.37.13,0,.05.02.19.02.27.04.88.51,1.75.51,1.75M150.23,29.85c.05-.08.18-.2.31-.3.14-.1.8-.6,1.42-.79.11-.03.14-.05.22-.07.09-.02.17-.23-.02-.26-.2-.03-.29-.02-.39-.01-.11,0-.16-.06-.08-.14.08-.09.22-.17.48-.28.55-.22,1.53-.34,1.98-.38.59-.05.67-.05,1.05-.02.36.03.65.1.78.12.68.12,1.47.44,2.17.83.37.22.72.47,1.05.73,1,.79,2.15,2.29,1.98,5.44-.02.37-.06.58-.09.67-.03.09-.14.25-.21.04-.21-.67-.47-1.86-1.08-2.8-.08-.13-.21-.12-.2.02,0,.06.03.66.02.78-.1.77.14.47.48,1.3.11.26.25.77.28,1.09,0,.08.02.18.02.27,0,.12-.05.12-.05.12-.24,0-.65-.11-.87-.12-.25,0-2.01-.03-2.68.03-.66.05-1.02.29-1.4.6-.06.05-.15.1-.2.12-.03.01-.05.02-.08.01-.03,0-.08-.01-.16-.03-.16-.03-.36-.05-.52,0-.16.05-.23.09-.4-.01-.24-.14-.62-.72-1.91-.73-.74,0-1.7-.02-2.27,0-.18,0-.28.03-.33.03,0-.02,0-.05,0-.06,0-1.05.67-.82.75-1.09.19-.68.24-2.31,1.41-3.31.56-.48.85-.5,1.37-.5.56,0,1.11.15,1.39.29.22.11.33.19.42.12.09-.07.32-.28.42-.35.1-.07.06-.19-.03-.27-.09-.07-.92-1.13-2.2-1.34-.29-.05-.51-.09-.77-.09-.14,0-.27,0-.6.03-.49.06-1.13.33-1.54.5-.02-.02.06-.16.09-.2M160.29,36.65c-.05.06-.1.02-.21.05-.08.02-.14.07-.22.06-.12-.01-.18-.16-.12-.26.1-.15.25-.02.36,0,.06.01.1,0,.15.01.06.02.06.07.03.13M158.54,37.18s-.23-.16-.31-.29c-.04-.06-.03-.12.07-.12.35,0,.67-.01.82.12.11.1.12.3.06.43-.06.15-.19.11-.26.1-.07-.01-.38-.23-.38-.23M158.69,37.81c-.07.03-.31-.05-.38-.09-.14-.08-.24-.13-.42-.29-.12-.1-.35-.15-.56-.14-.16,0-.32.04-.45.07-.12.03-.13-.08-.1-.13.04-.04.21-.2.59-.3.05-.01.16,0,.21,0,.16.02.34.12.48.26.13.13.41.37.56.46.07.04.23.09.07.17M153.32,40.45c.04.07.05.2.04.25-.01.06-.23.14-.41-.13-.18-.27-.09-.6.01-.73.17-.21.43-.06.39.02-.13.27-.07.52-.04.59M150.83,37.44s.06-.04.21-.12c.1-.06.22-.13.34-.21.21-.14.62-.29.79-.28.12,0,.34.06.46.18.12.13.15.29,0,.26-.16-.03-.32-.07-.62,0-.34.08-.56.21-.73.28-.17.08-.33.1-.39.09-.05,0-.21-.09-.05-.21M150.61,37.14c-.16.1-.32.22-.44.3-.15.1-.35,0-.29-.2.03-.1.17-.36.41-.4.03,0,.15-.03.25-.04.11-.01.24-.02.3-.03.17,0,.19.13.07.2-.08.05-.19.1-.3.17M147.94,33.77c.14-.38.39-.71.57-.94.16-.21.08-.49,0-.74-.05-.23-.2-.47-.22-.53-.02-.04-.02-.08,0-.11.01,0,.02-.01.03-.02l.31-.03c.88-.11,1.65-.43,1.89-.56.12-.07.24-.12.36-.16.15-.05.3-.1.45-.12.12-.02.25-.04.37-.05.17-.02.45.1.39.14-.15.09-.83.25-1.43.97-.37.44-.45.72-.58.92-.13.2-.23.25-.4.41-.09.07-.26.23-.35.48-.09.25-.42,1.12-.47,2.51,0,.16-.03.33-.18.39,0,0,0,0,0,0-.12.05-.22.13-.25.04-.08-.3-.26-.96-.34-1.38-.02-.13-.05-.26-.08-.39-.08-.35-.12-.67-.06-.85M148.68,40.33c-.25-.17-.24-.39-.3-.61-.14-.46-.28-1.02-.41-1.49-.08-.29-.1-.95.29-.95.19,0,.34.06.4.24.14.41-.12.34-.06.82.05.34.11.68.22,1.26.05.27.14.91-.1.75M149.64,36.76c-.08,0-.14-.04-.23-.06-.1-.02-.16,0-.2-.05-.04-.06-.03-.11.03-.13.06-.02.1,0,.15-.02.12-.02.26-.16.36,0,.07.1,0,.25-.11.26M149.82,39.57c-.03-.15.03-.38.39-.15.06.04.22.11.41.17.11.03.18-.01.22-.1.03-.08.12-.24-.03-.32-.16-.08-.54-.15-.76-.7-.04-.1.03-.21.09-.24.06-.03.14-.01.21.06.07.07.23.22.36.22.13,0,.15-.05.17-.08.11-.12.41-.57,1.05-.5.26.03.5.09.59.1.06,0,.24.01.4-.02.19-.04.47-.1.34.07-.11.13-.21.19-.11.33,0,0,.01.01.01.02.09.13.09.3,0,.42v.02c-.15.18-.44.4-1.04.43-.27.02-.29,0-.3.17,0,.06,0,.09,0,.14.02.08.07.11.26.12.14,0,.39-.02.39-.02.06-.02.13.02.1.07,0,0-.03.05-.04.05-.14.18-.18.34-.19.44-.01.08-.06.16-.13.19,0,0,0,0,0,0-.09.05-.44.12-.72.36-.28.23-.86.42-1.11.14-.25-.28-.45-.92-.56-1.4M152.44,46.28c-.5.02-1.8-.78-2.37-3.02-.15-.58.21-1.05.44-1.13.13-.05.2-.06.25-.07.05,0,.27,0,.26.25,0,.21.16,1.95.62,2.58.11.16.22.16.27.02.05-.13.13-.29.15-.36.02-.05.18-.3.23-.11.1.41.35,1.25.45,1.47.17.36-.11.35-.3.36M152.75,42.64c-.65,0-.95-.25-1-.33-.04-.07.03-.13.1-.15.15-.05.43-.19.54-.27.11-.08.42-.28.57-.38.07-.05.49-.23.73-.06.37.26.71.43,1.34.39.4-.02.39-.35.72-.46.3-.09.35-.17.45-.22.12-.02.21-.05.34.07.16.15.22.28.41.49.26.3.55.44.64.45.09.02.15.09.15.12,0,.03-.04.12-.3.2-.88.25-1.83.09-2.32-.11-.25-.1-.49-.13-.76,0-.27.14-1.01.24-1.61.24M156.03,43.19c-.15.06-.58.16-.79.17-.21.01-.88.06-.99.05-.14,0-.32-.08-.48-.22-.03-.03-.06-.13.06-.13.23,0,.62-.13,1.95-.01.14.01.21.02.24.02.03,0,.15.06,0,.11M161.73,37.98c-.18.94-.37,1.42-.5,2-.13.61-.39,1.49-.64,1.51-.25.08-.35-.22-.52,0-.1.13-.17.3-.26.41-.05.07-.11.23-.11.32,0,.17,0,.72-.16,1.44-.23,1.09-.64,1.88-1.07,2.38-.82.96-1.59,1.11-1.69,1.16-.12.06-.3.03-.35,0-.06-.03-.1-.1-.21-.2-.1-.1-.14.05-.15.09,0,.04.05.49-.06.69-.25.44-.48.48-.62,1.03-.04.19-.01.47-.23.34-.54-.31-1.31-1.15-1.47-1.96-.05-.25,0-.52.15-.99.09-.28.15-.58.15-.76,0-.31-.12-.58,0-.61.23-.05.33.54.43.48.18-.11.05-.73.05-.73,0,0-.07-.18-.39-.25-.18-.04-.24-.18-.05-.28.15-.07.32-.17.51-.14,1.32.19,1.7-.08,2.24-.22.11-.03.17-.04.25,0,.08.04.3.16.35.27.05.11,0,.56.07.89.07.34.3.03.36-.1.06-.13.12-.46.13-.54.01-.08.08-.43.2-.53.24-.2.33-.47.37-.57.04-.1.1-.43.09-.9-.01-.47-.1-.52-.21-.62-.11-.1-.24-.08-.53-.34-.25-.23-.46-.61-.64-.85-.18-.24-.49-.49-.83-.58-.35-.08-.2.24-.18.33.01.06.1.35-.02.44-.11.09-.81.57-1.44.4-.74-.2-1-.61-1.02-1.02-.01-.29.13-.56.29-.89.1-.19.14-.51.18-.82.03-.25.1-.6.15-.73.04-.09.13-.19.33-.18.2.01.33.11.37.29.13.6.34.76.41.81.07.05.21-.05.26-.08.05-.03.19-.17.15-.25-.06-.11-.1-.18-.11-.25-.02-.11.12-.1.15-.08.23.19.45.2.86.27.7.12.81-.14,1.29-.06.06.01.18.06.22.14.03.06.09.21.15.23.06.02.2.03.28.05.1.02.29,0,.26.2-.08.51-.66.65-.94.7-.11.02-.16.03-.18.05-.06.05-.06.21,0,.32.05.07.27.08.57.02.32-.06.62-.22.86-.59.25-.4.39-1.28.42-1.44.03-.16.09-.44.18-.49.09-.06.5-.18.56-.17.07.01.12.05.15.21.03.16-.03,1.13-.03,1.28,0,.16.08.15.12.13.1-.04.35-.22.41-.42.04-.15-.08-.36-.02-.57.1-.32.19-.4.26-.4.4.04.48.22.39.73M167.34,57.77c.12.03.19.15.16.27l-.42,1.88c-.02.09-.1.15-.19.15h-.59c-.11,0-.2-.09-.19-.21,0-.02,0-.03,0-.03.03-.61-.36-1.07-1.23-1.07-1.45,0-2.5,1.2-2.64,2.77-.14,1.63.98,2.57,2.54,2.57.8,0,1.43-.16,1.79-.27.14-.04.28.08.25.22l-.18.97c-.02.08-.08.15-.15.18-.32.1-1.22.34-2.59.34-3.26,0-4.58-1.89-4.38-3.82.18-1.72,1.31-4.25,5.75-4.25.85,0,1.53.14,2.07.29M148.96,57.77c.02-.1.11-.17.21-.17h3.2c.12,0,.22.12.19.24l-.11.5c-.02.08-.09.14-.17.15-.01,0-.02,0-.02,0-.24.03-.68.11-1.03.39l-2.66,2.23s0,0,0,0l2.05,2.8c.4.52.59.61.99.61.13,0,.23.13.2.26l-.11.5c-.02.09-.1.15-.19.15h-1.6c-1.77,0-2.26-.78-3.73-3.5,0,0,0,0,0,0l-.43,1.98c-.07.31.19.47.38.55,0,0,.02,0,.02,0,.09.04.14.13.12.23l-.13.58c-.02.09-.1.15-.19.15h-3.7c-.13,0-.23-.12-.2-.25l.11-.5c.02-.09.09-.16.18-.17,0,0,0,0,.01,0,.34-.04.69-.26.91-1.31l.84-3.87c.11-.52-.15-.71-.37-.8,0,0-.01,0-.03-.01-.1-.03-.16-.14-.14-.25l.11-.52c.02-.1.11-.17.21-.17h3.52c.12,0,.21.11.19.24l-.11.51c-.02.07-.07.13-.14.16,0,0-.02,0-.03,0-.16.05-.43.19-.5.52l-.47,2.16s0,0,0,0l2.73-2.29c.16-.14.12-.32-.07-.39,0,0,0,0,0,0-.11-.03-.17-.14-.15-.25l.11-.49M158.81,59.92c-.12,0-.21-.1-.19-.22,0-.02,0-.03,0-.03.03-.49-.13-.78-.68-.78h-1.69s-.45,2.08-.45,2.08h2.42c.12,0,.22.12.19.24l-.24,1.07c-.02.09-.1.15-.19.15h-2.51s-.28,1.27-.29,1.33c-.09.41.19.62.37.72,0,0,.02,0,.03.01.08.04.12.12.1.21l-.13.59c-.02.09-.1.15-.19.15h-2.95c-.12,0-.22-.12-.19-.24l1.28-5.87c.13-.52-.17-.73-.39-.81,0,0-.01,0-.02,0-.1-.03-.15-.14-.13-.24l.11-.52c.02-.1.11-.17.21-.17h6.55c.12,0,.22.12.19.24l-.42,1.93c-.02.09-.1.15-.19.15h-.62"/>
  <path class="cls-yum-logo-lockup-6" d="M174.4,67.42v.73h-.11v-.73h-.23v-.1h.57v.1h-.23ZM175.38,68.15v-.6l-.2.39h-.11l-.2-.39v.6h-.11v-.83h.11l.25.5.25-.5h.11v.83h-.11Z"/>
</svg>