<svg width="223" height="222" viewBox="0 0 223 222" fill="none" xmlns="http://www.w3.org/2000/svg">
<g filter="url(#filter0_dd_1069_5286)">
<rect x="16.5" y="8" width="190" height="190" rx="8" fill="#353535"/>
</g>
<path d="M111.911 65C111.327 65 110.742 65 110.158 65.5846L82.6806 78.4462C81.5114 79.0308 80.3422 80.2 79.7575 81.9538L72.7422 111.185C72.1575 112.354 72.7422 114.108 73.3268 115.277L73.9114 115.862L92.6191 139.246C93.7883 140.415 94.9575 141 96.7114 141H127.111C128.865 141 130.034 140.415 131.204 139.246L149.911 115.862C151.081 114.692 151.081 112.938 151.081 111.769L144.065 82.5385C143.481 80.7846 142.896 79.6154 141.142 79.0308L113.665 66.1692C113.665 65.5846 112.496 65 111.911 65Z" fill="#326CE5"/>
<path d="M111.911 74.9385C110.742 74.9385 110.157 75.5231 110.157 76.6923V81.9539C110.157 82.5385 109.573 82.5385 109.573 82.5385V83.1231C108.404 83.1231 107.819 83.1231 106.65 83.7077C102.557 84.8769 98.4651 86.6308 96.1267 89.5539L95.5421 88.9692H94.3728C93.7882 88.3846 93.2036 87.8 92.0344 87.2154L90.8651 86.0462H90.2805C89.6959 86.0462 89.6959 85.4616 89.1113 85.4616C88.5267 85.4616 87.9421 85.4616 87.9421 86.0462C87.3574 86.6308 87.3574 87.8 88.5267 88.3846H89.1113C89.6959 88.9692 90.2805 88.9692 90.2805 88.9692C91.4497 89.5539 92.0344 90.1385 92.619 90.7231C92.619 90.7231 93.2036 91.3077 93.2036 91.8923L93.7882 92.4769C90.8651 96.5692 89.6959 101.831 90.2805 107.092H89.6959L89.1113 107.677C88.5267 107.677 87.3574 108.262 86.1882 108.262H83.8498C82.6805 108.262 82.0959 109.431 82.6805 110.015C82.6805 110.6 83.8498 111.185 85.019 111.185H85.6036C86.1882 111.185 86.7728 110.6 87.3574 110.6C88.5267 110.015 89.1113 110.015 90.2805 110.015C90.8651 110.015 90.8651 110.015 91.4497 110.6H92.0344C93.7882 115.862 97.2959 119.954 101.388 122.292L100.804 122.877V124.046C100.219 124.631 100.219 125.8 99.0498 126.969C98.4651 127.554 98.4651 127.554 98.4651 128.138V128.723C97.8805 129.892 98.4651 130.477 99.0498 131.062C99.6344 131.646 100.804 131.062 101.388 129.892V129.308C101.388 128.723 101.973 128.138 101.973 127.554C102.557 126.385 102.557 125.215 103.142 124.631C103.142 124.631 103.727 124.631 103.727 124.046L104.311 123.462C107.819 124.631 112.496 125.215 116.588 124.631C117.757 124.631 118.342 124.046 119.511 124.046L120.096 124.631C120.096 124.631 120.681 124.631 120.681 125.215C121.265 125.8 121.265 126.969 121.85 128.138C121.85 128.723 121.85 129.308 122.434 129.892V130.477C123.019 131.646 123.604 131.646 124.773 131.646C125.357 131.062 125.942 130.477 125.357 129.308V128.723C125.357 128.138 124.773 128.138 124.773 127.554C124.188 126.385 123.604 125.8 123.604 125.215V123.462C128.281 120.538 131.204 116.446 132.957 111.769H133.542C133.542 111.769 134.127 111.185 134.711 111.185C135.296 111.185 136.465 111.769 137.634 111.769C138.219 111.769 138.804 112.354 139.388 112.354H139.973C141.142 112.354 141.727 111.769 142.311 111.185C142.311 110.6 141.727 109.431 141.142 109.431H138.804C137.634 109.431 136.465 109.431 135.881 108.846C135.296 108.846 135.296 108.262 135.296 108.262H134.711C135.296 105.923 134.711 103 134.127 100.662C133.542 98.3231 132.373 95.4 131.204 93.6462L131.788 93.0616C131.788 92.4769 131.788 92.4769 132.373 91.8923C132.957 91.3077 133.542 90.7231 134.711 90.1385C135.296 90.1385 135.881 89.5539 135.881 89.5539H136.465C137.05 88.9692 137.634 87.8 137.05 87.2154C136.465 86.6308 135.296 86.6308 134.711 87.2154H134.127L132.957 88.3846C132.373 88.9692 131.204 90.1385 130.619 90.1385H129.45L128.865 90.7231C125.357 87.2154 120.681 84.8769 115.419 84.2923V83.7077L114.834 83.1231V80.2V77.8616C113.665 76.1077 113.081 74.9385 111.911 74.9385ZM110.157 87.8L109.573 96.5692C109.573 97.1539 108.988 97.7385 108.404 97.7385H107.819L100.804 92.4769C103.142 90.1385 105.481 88.9692 108.988 87.8H110.157ZM114.25 87.8C117.757 88.3846 121.265 90.1385 124.188 92.4769L117.173 97.1539C116.588 97.7385 115.419 97.7385 115.419 97.1539L114.834 96.5692L114.25 87.8ZM97.8805 95.9846L104.311 101.831C104.896 102.415 104.896 103 104.311 103.585L103.727 104.169L95.5421 106.508C94.9574 102.415 95.5421 98.9077 97.8805 95.9846ZM126.527 95.9846C127.696 97.7385 128.281 99.4923 128.865 101.246C129.45 103 129.45 104.754 129.45 106.508L121.265 104.169C120.681 104.169 120.096 103 120.096 102.415C120.096 101.831 120.096 101.831 120.681 101.831L126.527 95.9846ZM110.742 101.831H113.081L114.834 103.585L114.25 105.923L111.911 107.092L109.573 105.923L108.988 103.585L110.742 101.831ZM118.927 108.846C119.511 108.846 119.511 108.846 118.927 108.846L127.696 110.015C126.527 113.523 124.188 116.446 120.681 118.785L117.173 110.6C117.757 110.015 117.757 109.431 118.927 108.846ZM104.896 108.846C105.481 108.846 106.065 109.431 106.065 110.015V111.185L102.557 119.369C99.6344 117.615 97.2959 114.692 95.5421 110.6L104.896 108.846ZM111.911 112.354L113.081 112.938L117.173 120.538C116.588 120.538 116.004 121.123 115.419 121.123C112.496 121.708 108.988 121.708 106.065 120.538L110.157 112.938C111.327 112.938 111.327 112.354 111.911 112.354Z" fill="white"/>
<path d="M118.927 108.846C119.511 108.846 119.511 108.846 118.927 108.846ZM118.927 108.846L127.696 110.015C126.527 113.523 124.188 116.446 120.681 118.785L117.173 110.6C117.757 110.015 117.757 109.431 118.927 108.846ZM111.911 74.9385C110.742 74.9385 110.157 75.5231 110.157 76.6923V81.9539C110.157 82.5385 109.573 82.5385 109.573 82.5385V83.1231C108.404 83.1231 107.819 83.1231 106.65 83.7077C102.557 84.8769 98.4651 86.6308 96.1267 89.5539L95.5421 88.9692H94.3728C93.7882 88.3846 93.2036 87.8 92.0344 87.2154L90.8651 86.0462H90.2805C89.6959 86.0462 89.6959 85.4616 89.1113 85.4616C88.5267 85.4616 87.9421 85.4616 87.9421 86.0462C87.3574 86.6308 87.3574 87.8 88.5267 88.3846H89.1113C89.6959 88.9692 90.2805 88.9692 90.2805 88.9692C91.4497 89.5539 92.0344 90.1385 92.619 90.7231C92.619 90.7231 93.2036 91.3077 93.2036 91.8923L93.7882 92.4769C90.8651 96.5692 89.6959 101.831 90.2805 107.092H89.6959L89.1113 107.677C88.5267 107.677 87.3574 108.262 86.1882 108.262H83.8498C82.6805 108.262 82.0959 109.431 82.6805 110.015C82.6805 110.6 83.8498 111.185 85.019 111.185H85.6036C86.1882 111.185 86.7728 110.6 87.3574 110.6C88.5267 110.015 89.1113 110.015 90.2805 110.015C90.8651 110.015 90.8651 110.015 91.4497 110.6H92.0344C93.7882 115.862 97.2959 119.954 101.388 122.292L100.804 122.877V124.046C100.219 124.631 100.219 125.8 99.0498 126.969C98.4651 127.554 98.4651 127.554 98.4651 128.138V128.723C97.8805 129.892 98.4651 130.477 99.0498 131.062C99.6344 131.646 100.804 131.062 101.388 129.892V129.308C101.388 128.723 101.973 128.138 101.973 127.554C102.557 126.385 102.557 125.215 103.142 124.631C103.142 124.631 103.727 124.631 103.727 124.046L104.311 123.462C107.819 124.631 112.496 125.215 116.588 124.631C117.757 124.631 118.342 124.046 119.511 124.046L120.096 124.631C120.096 124.631 120.681 124.631 120.681 125.215C121.265 125.8 121.265 126.969 121.85 128.138C121.85 128.723 121.85 129.308 122.434 129.892V130.477C123.019 131.646 123.604 131.646 124.773 131.646C125.357 131.062 125.942 130.477 125.357 129.308V128.723C125.357 128.138 124.773 128.138 124.773 127.554C124.188 126.385 123.604 125.8 123.604 125.215V123.462C128.281 120.538 131.204 116.446 132.957 111.769H133.542C133.542 111.769 134.127 111.185 134.711 111.185C135.296 111.185 136.465 111.769 137.634 111.769C138.219 111.769 138.804 112.354 139.388 112.354H139.973C141.142 112.354 141.727 111.769 142.311 111.185C142.311 110.6 141.727 109.431 141.142 109.431H138.804C137.634 109.431 136.465 109.431 135.881 108.846C135.296 108.846 135.296 108.262 135.296 108.262H134.711C135.296 105.923 134.711 103 134.127 100.662C133.542 98.3231 132.373 95.4 131.204 93.6462L131.788 93.0616C131.788 92.4769 131.788 92.4769 132.373 91.8923C132.957 91.3077 133.542 90.7231 134.711 90.1385C135.296 90.1385 135.881 89.5539 135.881 89.5539H136.465C137.05 88.9692 137.634 87.8 137.05 87.2154C136.465 86.6308 135.296 86.6308 134.711 87.2154H134.127L132.957 88.3846C132.373 88.9692 131.204 90.1385 130.619 90.1385H129.45L128.865 90.7231C125.357 87.2154 120.681 84.8769 115.419 84.2923V83.7077L114.834 83.1231V80.2V77.8616C113.665 76.1077 113.081 74.9385 111.911 74.9385ZM110.157 87.8L109.573 96.5692C109.573 97.1539 108.988 97.7385 108.404 97.7385H107.819L100.804 92.4769C103.142 90.1385 105.481 88.9692 108.988 87.8H110.157ZM114.25 87.8C117.757 88.3846 121.265 90.1385 124.188 92.4769L117.173 97.1539C116.588 97.7385 115.419 97.7385 115.419 97.1539L114.834 96.5692L114.25 87.8ZM97.8805 95.9846L104.311 101.831C104.896 102.415 104.896 103 104.311 103.585L103.727 104.169L95.5421 106.508C94.9574 102.415 95.5421 98.9077 97.8805 95.9846ZM126.527 95.9846C127.696 97.7385 128.281 99.4923 128.865 101.246C129.45 103 129.45 104.754 129.45 106.508L121.265 104.169C120.681 104.169 120.096 103 120.096 102.415C120.096 101.831 120.096 101.831 120.681 101.831L126.527 95.9846ZM110.742 101.831H113.081L114.834 103.585L114.25 105.923L111.911 107.092L109.573 105.923L108.988 103.585L110.742 101.831ZM104.896 108.846C105.481 108.846 106.065 109.431 106.065 110.015V111.185L102.557 119.369C99.6344 117.615 97.2959 114.692 95.5421 110.6L104.896 108.846ZM111.911 112.354L113.081 112.938L117.173 120.538C116.588 120.538 116.004 121.123 115.419 121.123C112.496 121.708 108.988 121.708 106.065 120.538L110.157 112.938C111.327 112.938 111.327 112.354 111.911 112.354Z" stroke="white" stroke-width="0.428571"/>
<defs>
<filter id="filter0_dd_1069_5286" x="0.5" y="0" width="222" height="222" filterUnits="userSpaceOnUse" color-interpolation-filters="sRGB">
<feFlood flood-opacity="0" result="BackgroundImageFix"/>
<feColorMatrix in="SourceAlpha" type="matrix" values="0 0 0 0 0 0 0 0 0 0 0 0 0 0 0 0 0 0 127 0" result="hardAlpha"/>
<feOffset dy="8"/>
<feGaussianBlur stdDeviation="8"/>
<feColorMatrix type="matrix" values="0 0 0 0 0.376471 0 0 0 0 0.380392 0 0 0 0 0.439216 0 0 0 0.16 0"/>
<feBlend mode="normal" in2="BackgroundImageFix" result="effect1_dropShadow_1069_5286"/>
<feColorMatrix in="SourceAlpha" type="matrix" values="0 0 0 0 0 0 0 0 0 0 0 0 0 0 0 0 0 0 127 0" result="hardAlpha"/>
<feOffset dy="2"/>
<feGaussianBlur stdDeviation="2"/>
<feColorMatrix type="matrix" values="0 0 0 0 0.156863 0 0 0 0 0.160784 0 0 0 0 0.239216 0 0 0 0.04 0"/>
<feBlend mode="normal" in2="effect1_dropShadow_1069_5286" result="effect2_dropShadow_1069_5286"/>
<feBlend mode="normal" in="SourceGraphic" in2="effect2_dropShadow_1069_5286" result="shape"/>
</filter>
</defs>
</svg>
