<svg width="223" height="222" viewBox="0 0 223 222" fill="none" xmlns="http://www.w3.org/2000/svg"
    xmlns:xlink="http://www.w3.org/1999/xlink">
    <g filter="url(#filter0_dd_1069_5280)">
        <rect x="16.5" y="8" width="190" height="190" rx="8" fill="#353535" />
    </g>
    <rect x="73.5" y="65" width="76" height="76" fill="url(#pattern0)" />
    <defs>
        <filter id="filter0_dd_1069_5280" x="0.5" y="0" width="222" height="222"
            filterUnits="userSpaceOnUse" color-interpolation-filters="sRGB">
            <feFlood flood-opacity="0" result="BackgroundImageFix" />
            <feColorMatrix in="SourceAlpha" type="matrix"
                values="0 0 0 0 0 0 0 0 0 0 0 0 0 0 0 0 0 0 127 0" result="hardAlpha" />
            <feOffset dy="8" />
            <feGaussianBlur stdDeviation="8" />
            <feColorMatrix type="matrix"
                values="0 0 0 0 0.376471 0 0 0 0 0.380392 0 0 0 0 0.439216 0 0 0 0.16 0" />
            <feBlend mode="normal" in2="BackgroundImageFix" result="effect1_dropShadow_1069_5280" />
            <feColorMatrix in="SourceAlpha" type="matrix"
                values="0 0 0 0 0 0 0 0 0 0 0 0 0 0 0 0 0 0 127 0" result="hardAlpha" />
            <feOffset dy="2" />
            <feGaussianBlur stdDeviation="2" />
            <feColorMatrix type="matrix"
                values="0 0 0 0 0.156863 0 0 0 0 0.160784 0 0 0 0 0.239216 0 0 0 0.04 0" />
            <feBlend mode="normal" in2="effect1_dropShadow_1069_5280"
                result="effect2_dropShadow_1069_5280" />
            <feBlend mode="normal" in="SourceGraphic" in2="effect2_dropShadow_1069_5280"
                result="shape" />
        </filter>
        <pattern id="pattern0" patternContentUnits="objectBoundingBox" width="1" height="1">
            <use xlink:href="#image0_1069_5280" transform="scale(0.005)" />
        </pattern>
        <svg id="image0_1069_5280" xmlns="http://www.w3.org/2000/svg" viewBox="0 0 450 450">
            <path fill="#04ac38" d="M0 0h450v450H0z"/>
            <path fill="#fff" d="M127 297h45v83h-45zM297 86c-24-13-41-15-81-15h-89v187h89c35 0 62-2 85-18 26-17 39-45 39-77 0-35-16-63-43-77Zm-71 132h-54V110h51c47-1 70 16 70 53 0 40-29 55-67 55Z"/>
        </svg>
    </defs>
</svg>
