<?xml version="1.0" encoding="utf-8"?>
<svg viewBox="196.3022 23.8608 47.8181 45.4202" xmlns="http://www.w3.org/2000/svg">
  <defs>
    <style>.cls-yum-logo-lockup-1 {fill: #5b2994;}.cls-yum-logo-lockup-2 {fill: #e1172b;}.cls-yum-logo-lockup-3 {fill: #c8132e;}.cls-yum-logo-lockup-4 {fill: #fff;}.cls-yum-logo-lockup-5 {fill: #fca201;}.cls-yum-logo-lockup-6 {fill: #1d1819;}.cls-yum-logo-lockup-7 {fill: #ea3724;}</style>
  </defs>
  <g>
    <g>
      <path class="cls-yum-logo-lockup-3" d="M231.03,25.24c11.31,3.6,12.9,16.89,12.9,16.89.31,1.72.28,7.23-.38,9.96-.45,1.88-.86,6.85-8.92,13.23-1.56,1.24-3.39,2.64-5.26,2.83-.23.02-.47.04-.58-.13-.11-.18.23-.63.33-.68,4.89-2.93,11.68-7.9,11.97-19.63,0,0,.68-11.03-6.08-16.23-2.17-1.67-5.31-3.57-7.77-4.25-.36-.1-3.76-.87-3.85-.29-.13.83,1.26.88,1.95.9,1.63.05,3.63,1.06,4.08,1.28,5.84,2.9,7.39,6.29,7.9,7.12,2.27,3.64,2.18,10.61,2.19,11.61.08,6.3-3.21,10.61-4.67,12.65-2.5,3.49-8.16,7.94-17.35,8.72-2.15.18-6.88.12-11.56-2.45-1.49-.82-4.5-3.27-6-6.1-.44-.82-1.28-2.96-.29-3.17.6-.12,1.47,1.73,3.1,3.5,1.48,1.61,2.99,3.11,5.18,4.19,2.92,1.45,6.45,2.27,7.92,2.03.32-.05.36-.45.04-.52-.91-.22-2.68-.37-4.15-.9-2.3-.82-6.53-3.51-8.98-6.67-.91-1.18-2.28-3.91-2.54-5.92-.46-3.51-.31-8.49-.14-9.46.94-5.64,3.94-8.9,6.23-10.93,2.26-2,6.41-3.42,7.48-3.93.19-.09.08-.31-.04-.33-.2-.03-.44,0-.65.06-.15.04-.32.07-.49.11-.47.1-13.81,3.14-13.95,19.49-.01,1.47-1.28.63-1.43-.27-.43-2.48-.37-4.77.19-7.15,1.03-4.38,3.73-7.86,6.4-10.17,3.91-3.37,9.36-5.32,13.9-6.12,3.86-.68,7.01-1.29,13.32.72M198.27,55.88c.71.13.88-.45.83-.72-.11-.54-.15-1.09-.19-1.83-.04-.69-.11-1.5-.55-2.06-.23-.29-.54-.45-.91-.46-1.65-.04-1.11,2.65-.86,3.54.11.39.28.78.6,1.04.3.26.69.41,1.09.48"/>
      <g>
        <path class="cls-yum-logo-lockup-4" d="M231.33,38.01c-.22-.1-.42-.19-.58-.26-.58-.27-2.02-.73-3.18-1.1-.64-.2-1.3-.42-1.43-.47-.13-.2-.4-1.43-.54-2.03-.07-.31-.13-.55-.16-.66-.1-.38-.24-.59-.59-.57,0,0-.03,0-.03,0-.13.01-1.84.36-4.65.93-1.89.39-3.84.78-3.96.8-.16.01-.25.09-1.47,1.97-.37.56-.83,1.26-.9,1.34-.04.03-.3.13-.58.25-.78.32-2.23.93-3.47,1.58-1.37.72-4.02,2.28-4.21,2.64-.07.14-.08.28,0,.4.09.16.3.24.56.23.05,0,.11-.01.17-.02.26-.05,8.62-1.3,13.42-1.84,1.2-.14,2.71-.25,4.5-.35,4.39-.23,8.82-.25,9.07-.21.26.04.52-.05.7-.25.15-.16.22-.37.22-.59-.01-.43-.94-.92-2.88-1.78Z"/>
        <g>
          <path class="cls-yum-logo-lockup-4" d="M216.1,46.6c-.03-.43-.1-.64-.23-.72-.07-.04-.16-.06-.24-.05,0,0-.01,0-.02,0-.2.05-.28.25-.33.38-.01.04-.03.07-.14.22-1.54,2.08-1.73,2.79-1.82,3.45-.07.52.11,1.13.41,1.4.14.13.32.18.5.15.14-.02.25-.1.31-.2.05-.09.06-.19.02-.3.06-.33.3-.81.58-1.36.46-.92,1.04-2.06.97-2.97"/>
          <path class="cls-yum-logo-lockup-4" d="M215.91,45.26s.02,0,.03,0c.4-.07.74-.54.92-.79.37-.5.8-1.18,1.01-1.5.04-.07.14-.26.16-.31.04-.12.04-.21-.02-.28-.07-.08-.19-.09-.38-.05-.47.11-1.45.58-2.03,1.4-.26.37-.39.78-.34,1.09.05.31.31.49.64.45"/>
          <path class="cls-yum-logo-lockup-4" d="M224.65,49.46c-.1,0-.18.05-.18.05-.36.16-.99.26-1.31.3-.51.05-1.01-.01-1.6-.09-.73-.1-1.56-.21-2.61-.1-.18.02-.36.05-.54.08.32-.33,1.22-1.27,1.73-1.81.35-.37.97-1.07,1.14-1.54.06-.18.15-.51-.01-.71-.11-.14-.3-.19-.56-.17-.04,0-3.11.32-3.11.32-.09,0-.23,0-.3,0-.02,0-.03,0-.04,0-.33-.02-.56.12-.61.35-.05.21.06.45.26.58.21.13.55.19,1.04.18.17,0,.35-.02.53-.04.41-.04.75-.12.95-.17-.44.42-1.66,1.59-2.41,2.31-.05.05-.11.1-.16.15-.4.38-.86.82-1.07,1.26-.18.39-.17.72.05.91.13.11.26.15.44.14.13-.01.28-.06.49-.12.4-.12,1-.29,1.99-.4.8-.09,1.74-.11,2.78-.08.38.01.74,0,1.09-.04.85-.09,1.57-.34,2.03-.69h.02c.13-.12.39-.31.27-.54-.05-.1-.15-.15-.28-.13"/>
          <path class="cls-yum-logo-lockup-4" d="M213.46,47.56s.76-1.66-.66-2.82c-.71-.58-1.69-.79-2.78-.59-.58.11-1.15.32-1.54.58-.42.28-.54.57-.56.77-.03.24.07.42.12.47.06.06.17.12.45.07.14-.03.31-.08.51-.15-.38.5-1.53,2.16-2.43,5.04-.65,2.09-.83,3.32-.55,3.76.07.1.16.16.27.17.03,0,.07,0,.1,0,.57-.1,1.15-1.61,1.95-3.69.12-.3.23-.61.36-.93,1.32-3.41,1.4-4.24,1.32-4.48.4,0,1.84.06,2.01,1.16.14.92-.83,1.75-1.79,2.24-.25.13-.5.21-.7.28-.19.07-.34.12-.44.18-.12.08-.11.17-.09.2.06.16.43.28,1.01.18h.04c.41-.08,2.5-.55,3.37-2.43"/>
          <path class="cls-yum-logo-lockup-4" d="M224.3,53.33c.02-.26-.02-.44-.11-.55-.06-.06-.13-.1-.21-.1-.03,0-.06,0-.1,0-.25.04-.41.31-.64.67-.22.35-.52.84-1.03,1.33-.58.56-1.21,1-1.43,1.09.17-.52.22-1.15.19-1.49-.03-.34-.15-.59-.34-.74-.23-.17-.51-.17-.71-.13-.26.05-.48.16-.57.25-.05.06-.08.12-.07.17.02.08.09.14.22.2.24.11.2.22.15.4-.01.03-.02.07-.03.1-.04.15-.1.31-.15.47-.21.61-.42,1.24-.23,1.77.16.44.57.63,1.11.53.1-.02.21-.05.32-.09.6-.21,1.26-.79,1.96-1.72.04.82.54,1.22.76,1.4.16.13.34.19.49.16.09-.02.16-.07.2-.14.03-.07.06-.2-.04-.4-.15-.31.03-1.6.15-2.45.05-.32.08-.59.1-.75"/>
          <path class="cls-yum-logo-lockup-4" d="M231.34,51.13c-.13-.12-.39-.07-1.35.14-.27.06-.59.13-.98.21-.11.02-.3.07-.54.13-.13.03-.28.07-.44.11l.05-.1c.17-.35.34-.72.4-.95.07-.25.03-.48-.09-.61-.09-.1-.22-.14-.36-.12-.13.02-.25.1-.35.22-.15.18-.67.83-1.24,1.9-.2.03-.77.12-1.16.08-.08,0-.21-.02-.33,0h-.01c-.18.04-.32.15-.4.32-.05.11-.05.23-.01.35.06.15.18.27.34.34.25.11.59.16.99.15-.6,1.5-.82,2.91-.66,4.19.03.24.09.4.18.47.04.03.09.04.14.03.14-.03.27-.21.35-.47.07-.22.96-2.9,1.61-4.54,1.34-.47,2.4-.89,3.25-1.28l.05-.02c.24-.11.47-.22.54-.28.05-.05.07-.1.07-.15,0-.04-.02-.08-.05-.11"/>
          <path class="cls-yum-logo-lockup-4" d="M219.19,54.61s-.04-.09-.13-.1c-.06-.02-.13-.01-.28.04-.04.02-.09.03-.15.06-.11.04-.26.1-.46.16.14-.63.26-1.14.36-1.56.21-.86.32-1.29.18-1.49-.05-.07-.12-.1-.23-.11-.02,0-.05,0-.08,0-.56.1-1.43,1.92-1.99,3.67-.04.01-.09.02-.13.03-.61.15-1.28.3-2,.45.16-.49.32-.99.52-1.55v-.02c.2-.55.55-1.56.49-2.02-.04-.31-.2-.35-.29-.35-.02,0-.03,0-.04,0-.62.11-1.81,2.29-2.62,4.29l-.09.02-.2.04c-.44.08-.86.16-1.11.26-.4.16-.62.37-.63.61-.01.21.16.42.46.56.26.12.59.18.98.19-.31.97-.73,2.62-.34,3.27.09.15.22.24.39.27.11.02.21.02.3,0,.69-.12.99-1.11,1.16-1.85.15-.64.32-1.32.52-2,.7-.2,1.48-.48,2.26-.82-.22.95-.45,2.45.22,2.6.12.04.24.05.36.03.27-.05.52-.26.7-.59.24-.45.35-1.1.44-1.68.07-.46.15-.91.23-1.33.49-.29.86-.55,1.05-.74.12-.12.18-.24.15-.33"/>
          <path class="cls-yum-logo-lockup-4" d="M231.76,46.5c-.14-.01-.25-.07-.33-.16-.17-.21-.09-.44.07-.92.06-.19.14-.4.21-.67.09-.31.02-.49-.05-.59-.08-.12-.2-.17-.29-.18-.14-.01-.31.09-.37.13-.24-.05-.49-.06-.76-.04-1.32.11-2.88,1.09-3.55,2.23-.33.56-.4,1.08-.21,1.51.01.03.03.07.05.1-.02,0-.04.01-.05.02-.2.11-.44.17-.74.2-.46.04-.97-.03-1.43-.09-.23-.03-.45-.06-.65-.07.37-.35,1.53-1.52,1.99-2.01.2-.22.54-.6.6-.7.21-.34.23-.65.06-.88-.13-.17-.44-.37-1.17-.31-.11,0-.24.03-.36.05-1.16.19-1.94.32-2.26.36-.15.02-.21,0-.31-.02-.06-.01-.12-.03-.18-.02h-.02c-.15.01-.28.09-.36.21-.1.15-.11.37-.04.58.12.33.52.47.83.48.16,0,.37,0,.64-.02.49-.04,1.05-.13,1.33-.17-.28.26-.63.54-1,.84-.61.5-1.24,1.01-1.69,1.5-.5.54-.74,1.09-.59,1.36.07.14.24.19.43.15.25-.07.51-.11.82-.13.4-.03.82-.03,1.22-.03.4,0,.81,0,1.21-.03.5-.04.9-.13,1.26-.29.45-.19.74-.43.8-.66.07.04.16.06.24.08.18.04.37.05.57.03.86-.07,1.64-.65,2.1-.99.1-.07.19-.14.25-.18.16.28.66.44,1.25.39h.01c.31-.03.98-.19,1.21-.46.05-.06.08-.13.07-.2-.01-.15-.16-.35-.83-.41M230.15,45.19c-.28.6-.32.74-.35.94-.26.17-1.17.65-1.54.68-.09,0-.11-.01-.12-.02-.01-.01,0-.05,0-.06.41-1.09,1.65-1.46,2.02-1.54"/>
        </g>
      </g>
    </g>
    <path class="cls-yum-logo-lockup-3" d="M238.77,65.7c-.15.14-.32.22-.53.22s-.39-.07-.54-.22-.22-.33-.22-.54.08-.41.24-.56c.15-.14.32-.21.52-.21s.39.07.54.22.22.33.22.54-.08.4-.23.55ZM237.8,64.71c-.12.12-.18.27-.18.44s.06.33.18.45c.12.12.27.19.44.19s.32-.06.44-.19c.12-.13.18-.28.18-.45s-.06-.32-.18-.44c-.12-.13-.27-.19-.44-.19s-.32.06-.45.19ZM237.91,65.58v-.85c.05,0,.13,0,.23,0s.16,0,.17,0c.07,0,.12.02.17.04.07.04.11.11.11.2,0,.07-.02.12-.06.15s-.09.05-.15.06c.05.01.09.03.12.05.05.04.07.1.07.19v.08s0,.02,0,.02c0,0,0,.02,0,.02v.02s-.2,0-.2,0c0-.03-.01-.07-.01-.12s0-.09-.01-.1c-.01-.03-.03-.05-.06-.06-.02,0-.04-.01-.08-.01h-.05s-.05,0-.05,0v.3h-.22ZM238.31,64.9s-.07-.02-.13-.02h-.05v.25h.09c.05,0,.09-.01.12-.03s.04-.05.04-.1-.02-.08-.07-.1Z"/>
  </g>
</svg>