<?xml version="1.0" encoding="utf-8"?>
<svg viewBox="264.21 24.07 41.47 45.01" xmlns="http://www.w3.org/2000/svg">
  <defs>
    <style>.cls-yum-logo-lockup-1 {fill: #5b2994;}.cls-yum-logo-lockup-2 {fill: #e1172b;}.cls-yum-logo-lockup-3 {fill: #c8132e;}.cls-yum-logo-lockup-4 {fill: #fff;}.cls-yum-logo-lockup-5 {fill: #fca201;}.cls-yum-logo-lockup-6 {fill: #1d1819;}.cls-yum-logo-lockup-7 {fill: #ea3724;}</style>
  </defs>
  <g>
    <path class="cls-yum-logo-lockup-1" d="M277.52,54.58c1.9-1.78,4.61-3.83,7.97-5.78.3.63.48,1.34.5,2.09.05,2.78-2.13,5.08-4.88,5.14-1.39.03-2.66-.53-3.59-1.44M289.1,55.16c8.9-4.97,12-9.44,11.15-11.57-.68-1.71-6.54-.43-14.69,3.99-7.96,4.31-12.65,9.3-11.95,10.78.75,1.57,8.92.47,15.49-3.2M272.35,28.15l.23-.28h0c-5.07,3.68-8.37,9.68-8.37,16.46,0,0,0,.01,0,.02v16.42s6.12,0,6.12,0c0,0-.2-.07-.22-.07-.9-.33-1.23-.61-1.6-.99-.76-.79-1.86-4.09,5.48-10.76,1.87-1.7,4.63-3.64,7.46-5.31.87-.51,1.71-.98,2.1-1.21-1.19.11-3.26.95-4.98,1.86-2.21,1.17-6.86,4.2-8.57,6.06-.02-.33-.08-.89-.44-2.61-.35-1.62-1.35-4.69-1.2-8.15.17-3.79,1.61-5.96,3.07-7.58.34-.38.98-1.05.77-1.64-.33-.88-.4-1.53.14-2.22M302.67,38.48c.72.32,1.01.6,1.02.61-2.29-8.65-10.11-15.02-19.4-15.02-3.15,0-6.12.73-8.77,2.03,0,0,.25-.07.38-.1,1-.19,1.49.32,2.14,1.18.32.42,1.23.33,1.67.25.83-.15,2.83-.46,5.44.3,5.46,1.6,8.87,7.64,11.43,9.06,1.41.78,2.68.84,3.92,1.08.97.18,1.68.39,2.18.61M278.17,60.78h26.05v-16.44c0-.9-.05-1.39-.05-1.39-2.17,7.63-15.75,16.12-26,17.84"/>
    <g>
      <polygon class="cls-yum-logo-lockup-6" points="301.8 63.49 300.48 63.49 300.48 68.99 304.21 68.99 304.21 67.83 301.8 67.83 301.8 63.49"/>
      <polygon class="cls-yum-logo-lockup-6" points="297.29 63.49 295.97 63.49 295.97 68.99 299.7 68.99 299.7 67.83 297.29 67.83 297.29 63.49"/>
      <polygon class="cls-yum-logo-lockup-6" points="295.08 63.49 290.99 63.49 290.99 68.99 295.14 68.99 295.14 67.83 292.31 67.83 292.31 66.76 294.62 66.76 294.62 65.65 292.31 65.65 292.31 64.64 295.08 64.64 295.08 63.49"/>
      <path class="cls-yum-logo-lockup-6" d="M273.36,66.24c0,1.57.96,2.84,2.79,2.84,1.07,0,1.77-.42,2.28-1l-1.1-.82c-.23.32-.62.58-1.21.58-.87,0-1.37-.68-1.37-1.6s.51-1.62,1.42-1.62c.53,0,.88.27,1.09.6l1.07-.78c-.48-.61-1.15-1.04-2.16-1.04-1.84,0-2.81,1.27-2.81,2.84"/>
      <polygon class="cls-yum-logo-lockup-6" points="268.92 63.49 264.25 63.49 264.25 64.64 265.92 64.64 265.92 68.99 267.24 68.99 267.24 64.64 268.92 64.64 268.92 63.49"/>
      <path class="cls-yum-logo-lockup-6" d="M305.28,68.46c.08-.03.12-.09.12-.18,0-.14-.09-.21-.25-.21h-.31v.65h.19v-.23h.05l.12.23h.21l-.14-.26ZM305.11,68.36h-.07v-.16h.07c.06,0,.09.03.09.08s-.03.08-.09.08Z"/>
      <path class="cls-yum-logo-lockup-6" d="M305.1,67.81c-.32,0-.58.23-.58.59s.27.59.58.59.58-.23.58-.59-.27-.59-.58-.59ZM305.1,68.88c-.25,0-.46-.19-.46-.49s.21-.49.46-.49.46.18.46.49-.21.49-.46.49Z"/>
      <path class="cls-yum-logo-lockup-6" d="M271.35,63.49h-1.11l-2.32,5.5h1.4l.3-.8h2.19l.3.8h1.47l-2.23-5.5ZM270.04,67.08l.71-1.95.66,1.95h-1.37Z"/>
      <path class="cls-yum-logo-lockup-6" d="M281.29,63.39c-1.74,0-2.79,1.27-2.79,2.84s1.05,2.84,2.79,2.84,2.78-1.27,2.78-2.84-1.06-2.84-2.78-2.84ZM281.29,67.83c-.88,0-1.39-.68-1.39-1.59s.51-1.62,1.39-1.62,1.39.68,1.39,1.62-.51,1.59-1.39,1.59Z"/>
      <path class="cls-yum-logo-lockup-6" d="M289.29,66.01c.52-.26.75-.61.75-1.23,0-.82-.64-1.3-1.89-1.3h-2.1v5.5h2.37c1.39,0,2.05-.51,2.05-1.58,0-.74-.41-1.23-1.18-1.4ZM287.31,64.56h.52c.64,0,.89.13.89.53,0,.42-.25.57-.75.57h-.67v-1.1ZM288.09,67.84h-.79v-1.14h.81c.71,0,1.01.16,1.01.57,0,.44-.23.57-1.04.57Z"/>
    </g>
  </g>
</svg>