<?xml version="1.0" encoding="utf-8"?>
<svg viewBox="1.04 3.46 113.09 85.0192" xmlns="http://www.w3.org/2000/svg">
  <defs>
    <style>.cls-yum-logo-lockup-1 {fill: #5b2994;}.cls-yum-logo-lockup-2 {fill: #e1172b;}.cls-yum-logo-lockup-3 {fill: #c8132e;}.cls-yum-logo-lockup-4 {fill: #fff;}.cls-yum-logo-lockup-5 {fill: #fca201;}.cls-yum-logo-lockup-6 {fill: #1d1819;}.cls-yum-logo-lockup-7 {fill: #ea3724;}</style>
  </defs>
  <g>
    <path class="cls-yum-logo-lockup-2" d="M57.58,3.46C26.35,3.46,1.04,22.14,1.04,45.18c0,9.61,4.41,18.45,11.81,25.5l-9.98,16.09c-.83,1.19-.35,1.93,1.06,1.65l25.8-6.93c8.23,3.45,17.73,5.42,27.86,5.42,31.23,0,56.54-18.68,56.54-41.72S88.81,3.46,57.58,3.46Z"/>
    <g>
      <path class="cls-yum-logo-lockup-4" d="M29.46,51.09c.11-1,.23-2,.35-3.01l7.62-13.22,3.21-.52.3-2.29h-9.09l-.3,2.29,3.29.49-6.04,10.84-3.73-10.94,1-.13,2.1-.27.3-2.29h-12.61l-.31,2.29,2.67.29,5.36,14.14-1.03,8.47-3.57.39-.26,2.29h13.34l.3-2.29-3.58-.39c.06-.58.12-1.15.18-1.73.15-1.47.31-2.94.48-4.41Z"/>
      <path class="cls-yum-logo-lockup-4" d="M91.05,57.3c-.07-1.15.26-2.11.99-2.9.74-.78,1.61-1.18,2.63-1.18.96,0,1.76.34,2.42,1.02.65.68,1.01,1.47,1.06,2.38.07,1.09-.27,2.02-1.02,2.79-.75.77-1.63,1.15-2.65,1.15-.96,0-1.76-.32-2.39-.97-.64-.65-.98-1.41-1.04-2.29Z"/>
      <path class="cls-yum-logo-lockup-4" d="M89.64,55.57c-.16.18-.31.35-.46.48-.46.42-.87.64-1.22.64-.22,0-.39-.07-.5-.21-.12-.14-.19-.35-.2-.64-.01-.23,0-.49.05-.78.05-.3.12-.64.2-1.04l1.41-8.02c.12-.68.21-1.32.27-1.93.06-.61.07-1.19.03-1.76-.08-1.22-.43-2.11-1.07-2.69-.64-.58-1.4-.87-2.3-.87s-1.89.23-2.9.68c-1.01.45-2,1.09-2.98,1.91-.67.56-1.33,1.2-1.98,1.93.02-.29.03-.6,0-.95-.08-1.22-.43-2.11-1.05-2.69-.62-.58-1.38-.87-2.28-.87-.95,0-1.93.23-2.94.68-1.01.45-2.01,1.09-3.02,1.91-.65.53-1.29,1.13-1.92,1.78l.49-3.73-.82-.68-8.21,2.42-.15,1.57,2.87.47-2.4,16.75h5.91c.1-.67.21-1.41.32-2.13,0,0,0,0,0,0,.49-2.26,1.02-6.74,1.83-8.64,1.05-2.46,2.7-5.08,3.69-5.2,1.36-.17,1.6,1.12,1.55,2.25-.04.29-.08.59-.12.91l-.1.69h0s0,0,0,0l-1.75,12.12h5.87c.23-1.55.54-3.45.68-4.56.03-.22.06-.43.08-.65.35-2.06.76-4.32,1.27-5.52,1.05-2.46,2.7-5.08,3.69-5.2,1.54-.19,1.64,1.5,1.52,2.7-.04.28-.09.58-.14.88l-1.15,6.36c-.1.62-.2,1.27-.31,1.95-.11.68-.14,1.33-.1,1.95.05.85.36,1.51.92,1.99.56.48,1.32.72,2.27.72,1.2,0,2.27-.27,3.21-.81.67-.38,1.29-.85,1.85-1.4-.07-.29-.11-.58-.13-.89-.04-.67.02-1.3.18-1.89Z"/>
      <path class="cls-yum-logo-lockup-4" d="M54.59,56.42c-.56.05-.74-.7-.66-1.75,0-.03,0-.06,0-.1,0-.08.02-.18.04-.31,0,0,0,0,0,0,.16-1.25.47-3.41.47-3.44.22-1.58.43-3.05.44-3.05l1.27-8.37-.82-.68-5.36,1.78c-.12,1.07-.24,2.14-.35,3.18-.32,2.29-1.42,7.61-2.26,9.07-.98,1.71-2.24,3.43-3.23,3.44-.36-.01-.68-.14-.97-.38-.3-.25-.47-.69-.51-1.31-.02-.28,0-.57.03-.87.04-.3.08-.62.12-.95.05-.34.1-.68.16-1.02l2-12.26-.78-.68-8.42,2.38-.14,1.61,2.94.5-1.52,9.72c-.09.71-.18,1.41-.26,2.1-.08.69-.1,1.35-.06,1.97.05.74.25,1.37.61,1.91.36.54.82.95,1.38,1.23.56.28,1.17.42,1.82.42.98,0,1.97-.24,2.97-.72,1-.48,2.01-1.17,3.01-2.08.36-.33.72-.69,1.07-1.08-.16,1.04-.15,3.11,2.11,3.64.18.04.37.08.57.1.02,0,.03.01.06.01.08,0,.16,0,.24,0,.07,0,.14.01.22.01.04,0,.07,0,.11,0,3.7,0,6.15-2.34,6.15-2.34l.63-3.8c-.82.8-2.22,2.04-3.09,2.12Z"/>
      <path class="cls-yum-logo-lockup-4" d="M100.36,32.62c-.54-.57-1.33-.85-2.36-.85s-1.98.28-2.74.85c-.77.57-1.27,1.56-1.51,2.97-.08.51-.13,1.19-.16,2.04-.03.85-.02,1.92.02,3.2.04,1.29.12,2.86.24,4.73l.3,6.08c.17-.02.34-.03.51-.03.47,0,.92.08,1.35.2,1.14-2.98,2.06-6.08,2.76-8,.71-1.92,1.25-3.45,1.63-4.58.38-1.13.62-2.02.73-2.67.11-.65.15-1.2.12-1.65-.06-.96-.36-1.72-.9-2.29Z"/>
    </g>
  </g>
</svg>