<svg width="96" height="48" viewBox="0 0 3515 1525" preserveAspectRatio="xMinYMid meet" xmlns="http://www.w3.org/2000/svg"><path fill="currentColor" d="m2420.650439,1509.059913l-48.974171,0l0,-1505.059898l158.867434,0l0,1505.059898l-109.893262,0zm840.922356,0l-494.519681,-395.376846l0,395.376846l-158.867434,0l0,-1503.865406l158.867434,0l0,778.808773l494.519681,-395.376846l254.426792,0l-701.166794,560.21674l701.166794,560.21674l-254.426792,0zm-3099.706694,-570.967168l0,0c0,232.925937 188.729733,422.850162 421.65567,422.850162c232.925937,0 421.65567,-188.729733 422.850162,-422.850162c0,-234.120429 -188.729733,-422.850162 -421.65567,-422.850162c-232.925937,0 -421.65567,188.729733 -422.850162,422.850162zm-158.867434,0l0,-934.09273l158.867434,0l0,535.132408c106.309786,-112.282246 255.621284,-182.757273 421.65567,-182.757273l0,0c321.318343,0 580.523103,260.399252 580.523103,581.717595c0,321.318343 -260.399252,581.717595 -580.523103,581.717595c-321.318343,0 -580.523103,-260.399252 -580.523103,-581.717595zm1694.984123,-414.488718c-27.473316,5.97246 -53.752139,14.333904 -78.836471,25.084332c-25.084332,10.750428 -48.974171,23.88984 -71.669519,39.418235c-22.695348,15.528396 -43.001711,32.251284 -62.113583,51.363155c-19.111872,19.111872 -37.029251,40.612727 -51.363155,62.113583c-15.528396,22.695348 -28.667808,46.585187 -39.418235,71.669519c-10.750428,25.084332 -19.111872,51.363155 -25.084332,78.836471c-5.97246,27.473316 -8.361444,56.141123 -8.361444,84.808931c0,29.8623 2.388984,57.335615 8.361444,84.808931c3.583476,19.111872 8.361444,37.029251 15.528396,53.752139l696.388826,-439.57305c-19.111872,-19.111872 -39.418235,-35.834759 -62.113583,-50.168663c-22.695348,-15.528396 -46.585187,-28.667808 -71.669519,-39.418235c-25.084332,-10.750428 -51.363155,-19.111872 -78.836471,-25.084332c-27.473316,-5.97246 -56.141123,-8.361444 -84.808931,-8.361444c-28.667808,0 -57.335615,3.583476 -84.808931,8.361444l-1.194492,2.388984zm-32.251284,984.261394c-38.223743,-7.166952 -74.058503,-19.111872 -108.69877,-33.445776c-34.640267,-14.333904 -68.086043,-32.251284 -99.142835,-53.752139c-31.056792,-20.306364 -59.724599,-44.196203 -86.003423,-70.475027c-26.278824,-26.278824 -50.168663,-54.946631 -70.475027,-86.003423c-20.306364,-31.056792 -38.223743,-64.502567 -53.752139,-99.142835c-14.333904,-34.640267 -26.278824,-71.669519 -33.445776,-108.69877c-8.361444,-38.223743 -11.94492,-77.641979 -11.94492,-117.060214c0,-40.612727 3.583476,-78.836471 11.94492,-117.060214c7.166952,-38.223743 19.111872,-74.058503 33.445776,-109.893262c14.333904,-34.640267 32.251284,-68.086043 53.752139,-99.142835c20.306364,-31.056792 44.196203,-59.724599 70.475027,-86.003423c26.278824,-26.278824 54.946631,-50.168663 86.003423,-71.669519c31.056792,-20.306364 63.308075,-38.223743 99.142835,-53.752139c34.640267,-14.333904 71.669519,-26.278824 108.69877,-33.445776c38.223743,-7.166952 76.447487,-11.94492 117.060214,-11.94492c39.418235,0 78.836471,3.583476 117.060214,11.94492c38.223743,7.166952 74.058503,19.111872 108.69877,33.445776c34.640267,14.333904 68.086043,32.251284 99.142835,53.752139c31.056792,21.500856 59.724599,44.196203 86.003423,70.475027c26.278824,26.278824 50.168663,54.946631 70.475027,86.003423l45.390695,68.086043l-846.894816,533.937916c7.166952,7.166952 13.139412,15.528396 20.306364,22.695348c19.111872,19.111872 40.612727,35.834759 62.113583,51.363155c22.695348,15.528396 46.585187,28.667808 71.669519,39.418235c25.084332,10.750428 51.363155,19.111872 78.836471,25.084332c27.473316,5.97246 56.141123,8.361444 84.808931,8.361444c28.667808,0 57.335615,-2.388984 84.808931,-8.361444c27.473316,-5.97246 53.752139,-14.333904 78.836471,-25.084332c25.084332,-10.750428 48.974171,-23.88984 71.669519,-39.418235c22.695348,-15.528396 43.001711,-32.251284 62.113583,-51.363155c19.111872,-19.111872 37.029251,-40.612727 51.363155,-62.113583c15.528396,-22.695348 28.667808,-46.585187 39.418235,-71.669519l19.111872,-45.390695l145.728022,62.113583l-19.111872,45.390695c-14.333904,34.640267 -32.251284,68.086043 -53.752139,99.142835c-20.306364,31.056792 -44.196203,59.724599 -70.475027,86.003423c-26.278824,26.278824 -54.946631,50.168663 -86.003423,70.475027c-31.056792,20.306364 -63.308075,39.418235 -99.142835,53.752139c-34.640267,14.333904 -71.669519,26.278824 -108.69877,33.445776c-38.223743,8.361444 -77.641979,11.94492 -117.060214,11.94492c-39.418235,0 -78.836471,-3.583476 -117.060214,-11.94492l3.583476,0z"></path></svg>