<?xml version="1.0" encoding="utf-8"?>
<svg viewBox="15.9822 25.4521 173.5 137.8659" xmlns="http://www.w3.org/2000/svg">
  <defs>
    <clipPath id="clip0">
      <rect width="173.5" height="38.0274" fill="white"/>
    </clipPath>
  </defs>
  <g clip-path="url(#clip0)" transform="matrix(1, 0, 0, 1, 15.982194900512695, 25.45208740234375)">
    <path d="M34.9582 12.4497L25.4353 2.85763C24.3075 1.78506 22.9642 0.968339 21.496 0.462547C18.2425 -0.627198 15.0046 0.223425 12.3823 2.85763L2.83603 12.4497C1.7699 13.5843 0.958069 14.9357 0.455313 16.4128C-0.631789 19.686 0.213735 22.9434 2.83603 25.5776L12.3706 35.1698C13.4965 36.2427 14.8387 37.0595 16.306 37.5648C17.1949 37.8671 18.1263 38.0233 19.0646 38.0274C21.3518 38.0274 23.5416 37.0552 25.4197 35.1698L34.9504 25.5776C36.0179 24.4435 36.8311 23.092 37.335 21.6146C38.4182 18.3414 37.5727 15.0879 34.9504 12.4497H34.9582ZM19.6296 5.64079C20.3499 5.87311 21.0136 6.25507 21.5778 6.7619L24.3949 9.59994L18.901 15.1231L13.407 9.59602L16.2397 6.7423C16.9995 5.98183 18.071 5.17432 19.6374 5.63687L19.6296 5.64079ZM5.61028 18.2709C5.84194 17.5457 6.22299 16.8779 6.72856 16.3109L9.54567 13.4768L15.0396 19.0039L9.54178 24.531L6.70908 21.6773C5.94927 20.9168 5.15051 19.8388 5.60639 18.263L5.61028 18.2709ZM18.1646 32.3748C17.4434 32.1446 16.7792 31.7624 16.2164 31.2537L13.407 28.451L18.901 22.9199L24.3949 28.447L21.5622 31.3008C20.8024 32.0612 19.7348 32.8687 18.1646 32.4062V32.3748ZM32.1917 19.7722C31.9601 20.4965 31.5805 21.1642 31.0773 21.7322L28.2602 24.531L22.7662 19.0039L28.2602 13.4768L31.0929 16.3266C31.8527 17.087 32.6515 18.165 32.1956 19.7408" fill="#00ABE4"/>
    <path d="M55.5202 32.5199H60.4414V18.7804C60.4414 14.543 57.8814 11.4149 53.5135 11.4149C51.3861 11.4149 49.1067 12.3635 47.9222 14.1079V3.91602H43.0049V32.5081H47.9222V21.6695C47.9222 19.1372 49.1846 15.9699 52.1342 15.9699C54.7331 15.9699 55.5202 17.432 55.5202 19.8114V32.5199ZM75.392 24.3938C75.392 27.4161 73.245 29.0664 70.2019 29.0664C68.6784 29.0664 67.3108 28.0864 67.3108 26.5145C67.3108 24.8642 68.7564 23.9626 70.2409 23.845L75.392 23.453V24.3938ZM79.491 32.8374C80.3309 32.865 81.1638 32.676 81.9107 32.2886V28.6744C81.7062 28.7228 81.4972 28.7491 81.2873 28.7528C80.469 28.7528 80.1573 28.4 80.1573 27.4553V19.878C80.2187 18.4786 80.0192 17.0799 79.5689 15.7542C78.4 12.6889 75.4309 11.5913 71.9592 11.5913C67.4277 11.5913 63.7962 13.6336 63.5235 18.2277H68.2498C68.3667 16.3423 69.6915 15.3231 71.9592 15.3231C74.7296 15.3231 75.392 16.6166 75.392 18.5413V19.7996L69.4149 20.2191C65.5496 20.4935 62.5455 22.7318 62.5455 26.6203C62.5455 29.9601 65.0431 33.0216 69.8863 33.0216C72.7736 33.0216 75.1153 31.6104 76.0544 29.9601C76.2102 31.4928 77.3791 32.8256 79.4871 32.8256L79.491 32.8374ZM94.8234 16.4481C95.084 16.45 95.3441 16.467 95.6027 16.499V11.8735C95.3923 11.8735 95.1819 11.8265 94.9754 11.8265C92.5908 11.8265 90.1711 12.8065 89.236 15.1623L88.8035 12.1009H84.6616V32.5238H89.5828V22.2339C89.5828 18.9333 91.379 16.4598 94.8117 16.4598L94.8234 16.4481ZM110.222 32.5316H115.104V18.8941C115.104 14.6527 112.564 11.5913 108.231 11.5913C105.893 11.5913 103.47 12.5713 102.258 14.7272L101.907 12.0969H97.8198V32.5199H102.698V24.1978C102.698 22.4691 102.659 20.3484 103.364 18.7373C104.027 17.2438 105.161 16.1462 106.871 16.1462C109.447 16.1462 110.226 17.6005 110.226 19.9956L110.222 32.5316ZM131.126 20.2779H122.352C122.33 19.1264 122.703 18.0025 123.408 17.0949C123.813 16.5853 124.332 16.1781 124.922 15.9059C125.512 15.6337 126.157 15.5039 126.805 15.5269C127.372 15.4964 127.939 15.5853 128.47 15.7878C129 15.9903 129.483 16.3019 129.887 16.7029C130.667 17.5692 131.099 18.7452 131.138 20.2779H131.126ZM136.016 22.477C136.094 19.9251 135.744 17.6084 134.259 15.3662C132.584 12.8143 129.848 11.5991 126.856 11.5991C125.657 11.5639 124.463 11.7756 123.348 12.2212C122.233 12.6667 121.221 13.3368 120.372 14.1902C118.424 16.1933 117.446 19.098 117.446 22.3594C117.446 25.6992 118.537 28.5646 120.563 30.5285C121.411 31.3558 122.414 32.0042 123.514 32.4357C124.614 32.8673 125.789 33.0731 126.969 33.0412C129.544 33.0412 132.081 32.218 133.799 30.1757C134.579 29.231 135.401 27.6239 135.518 26.4048H130.842C130.678 27.0595 130.34 27.6571 129.864 28.1334C129.163 28.839 128.305 29.1134 126.899 29.1134C125.771 29.1097 124.69 28.659 123.891 27.859C123.385 27.3281 122.993 26.6989 122.738 26.01C122.482 25.3212 122.37 24.5871 122.406 23.8529H135.977C135.977 23.4177 136.016 22.477 136.016 22.477ZM142.57 17.8044C142.582 17.3279 142.737 16.8662 143.015 16.4805C143.294 16.0948 143.682 15.8032 144.129 15.6445C144.801 15.3908 145.52 15.2839 146.237 15.3309C147.206 15.3037 148.152 15.6389 148.89 16.2717C149.401 16.7824 149.694 17.4724 149.708 18.1964H154.357C154.299 16.6196 153.658 15.1214 152.561 13.9942C151.08 12.3792 148.621 11.5952 146.202 11.5952C143.661 11.5952 141.526 12.34 140.034 13.6375C139.367 14.1972 138.835 14.9011 138.477 15.6965C138.119 16.492 137.944 17.3586 137.965 18.2317C137.965 20.8227 139.839 23.1002 142.609 23.6921C144.405 24.0841 146.435 24.2017 148.232 24.4761C149.479 24.6721 150.262 25.4561 150.262 26.636C150.262 28.8743 147.764 29.2271 146.124 29.2271C144.717 29.2271 143.821 28.9527 143.038 28.3255C142.498 27.8392 142.136 27.1851 142.009 26.4675H137.411C137.6 28.0785 138.348 29.5708 139.523 30.6814C141.203 32.2925 143.505 33.0334 146.085 33.0334C148.855 33.0334 151.392 32.3278 153.032 30.6814C153.615 30.0955 154.072 29.3956 154.376 28.625C154.679 27.8544 154.823 27.0294 154.797 26.2009C154.797 22.9787 152.459 20.9364 149.253 20.4268C147.262 20.1132 146.755 20.074 144.92 19.8388C143.829 19.682 142.582 19.2469 142.582 17.7965L142.57 17.8044ZM168.439 18.1885H173.071C173.013 16.6118 172.373 15.1135 171.275 13.9864C169.791 12.3792 167.332 11.5952 164.928 11.5952C162.391 11.5952 160.252 12.34 158.76 13.6375C158.094 14.1972 157.561 14.9011 157.203 15.6965C156.845 16.492 156.67 17.3586 156.691 18.2317C156.691 20.8227 158.565 23.1002 161.335 23.6921C163.132 24.0841 165.162 24.2017 166.958 24.4761C168.205 24.6721 168.988 25.4561 168.988 26.636C168.988 28.8743 166.486 29.2271 164.85 29.2271C163.443 29.2271 162.547 28.9527 161.764 28.3255C161.224 27.8392 160.862 27.1851 160.735 26.4675H156.122C156.31 28.0794 157.06 29.5722 158.238 30.6814C159.913 32.2925 162.216 33.0334 164.795 33.0334C167.566 33.0334 170.102 32.3278 171.743 30.6814C172.324 30.0948 172.78 29.3947 173.082 28.6241C173.384 27.8535 173.527 27.0289 173.5 26.2009C173.5 22.9787 171.162 20.9364 167.955 20.4268C165.964 20.1132 165.458 20.074 163.623 19.8388C162.532 19.682 161.285 19.2469 161.285 17.7965C161.296 17.3201 161.452 16.8584 161.73 16.4726C162.008 16.0869 162.397 15.7954 162.843 15.6367C163.516 15.3829 164.234 15.276 164.951 15.3231C165.921 15.2959 166.866 15.631 167.605 16.2638C168.116 16.7742 168.411 17.4641 168.427 18.1885" fill="white"/>
  </g>
  <path d="M 83.119 153.092 C 78.94 149.67 76.732 144.745 76.732 138.862 L 76.732 110.899 C 83.332 107.401 91.323 105.628 100.485 105.628 C 109.647 105.628 117.639 107.401 124.238 110.899 L 124.238 138.862 C 124.238 144.745 122.03 149.667 117.851 153.092 C 114.028 156.226 101.879 161.556 100.484 162.163 C 99.091 161.556 86.942 156.226 83.119 153.092 Z" fill="#300" style=""/>
  <path d="M 122.937 110.571 C 119.884 110.287 116.712 110.1 113.481 110.1 C 101.499 110.1 88.653 112.676 78.033 122.416 L 78.033 139.065 C 78.033 144.488 80.038 149.016 83.848 152.121 C 87.213 154.859 97.566 159.547 100.485 160.836 C 103.367 159.567 113.694 154.94 117.117 152.121 C 120.951 148.962 122.937 144.539 122.937 139.065 L 122.937 110.571 M 80.228 137.333 L 80.228 123.811 L 84.527 123.811 L 84.527 137.524 C 84.527 138.744 84.822 140.551 86.794 140.551 C 87.509 140.58 88.216 140.395 88.825 140.021 L 88.825 123.811 L 93.119 123.811 L 93.119 142.473 C 91.18 143.683 88.922 144.285 86.638 144.2 C 82.382 144.2 80.224 141.89 80.224 137.333 M 99.634 152.94 L 95.332 152.94 L 95.332 124.906 C 97.072 123.838 99.089 123.306 101.13 123.376 C 106.264 123.376 109.085 127.272 109.085 133.542 C 109.085 139.812 106.348 144.126 101.571 144.126 C 100.918 144.138 100.265 144.055 99.635 143.881 L 99.634 152.94 Z M 99.634 140.366 C 100.081 140.534 100.553 140.621 101.03 140.626 C 103.502 140.626 104.687 138.354 104.687 133.65 C 104.687 128.831 103.653 126.838 101.155 126.838 C 100.632 126.834 100.112 126.94 99.631 127.148 L 99.634 140.366 Z M 110.06 128.982 C 110.117 125.845 112.694 123.342 115.832 123.376 C 117.519 123.287 119.185 123.78 120.552 124.773 L 120.552 128.514 C 119.539 127.457 118.162 126.826 116.7 126.748 C 115.48 126.738 114.211 127.274 114.17 128.803 C 114.128 130.369 115.394 130.987 116.995 131.928 C 120.588 134.04 121.283 135.939 121.2 138.447 C 121.118 141.198 119.222 144.202 114.972 144.202 C 113.306 144.183 111.674 143.722 110.244 142.867 L 110.244 138.905 C 111.38 139.932 112.828 140.548 114.355 140.655 C 115.933 140.663 116.972 139.758 116.934 138.258 C 116.902 136.908 116.14 136.174 114.247 135.063 C 110.7 132.982 110.063 131.27 110.057 128.982 M 82.409 153.875 C 78.057 150.31 75.761 145.188 75.761 139.065 L 75.761 109.959 C 82.63 106.317 90.949 104.472 100.485 104.472 C 110.021 104.472 118.34 106.317 125.209 109.959 L 125.209 139.065 C 125.209 145.188 122.913 150.31 118.561 153.876 C 114.582 157.138 101.937 162.686 100.485 163.317 C 99.033 162.686 86.388 157.138 82.409 153.875 Z M 116.267 159.976 L 116.267 162.502 L 116.722 162.502 L 116.722 161.448 L 116.787 161.448 C 116.821 161.499 117.473 162.502 117.473 162.502 L 118.025 162.502 C 118.025 162.502 117.333 161.489 117.262 161.394 C 117.589 161.338 117.825 161.054 117.821 160.723 C 117.831 160.269 117.43 159.916 116.98 159.98 L 116.267 159.976 Z M 116.931 160.345 C 117.319 160.345 117.372 160.535 117.372 160.698 C 117.372 160.935 117.271 161.094 116.783 161.094 L 116.723 161.094 L 116.723 160.343 L 116.931 160.345 Z M 118.715 161.245 C 118.712 162.562 117.285 163.382 116.146 162.722 C 115.008 162.06 115.01 160.415 116.152 159.759 C 116.411 159.61 116.704 159.532 117.002 159.531 C 117.949 159.531 118.717 160.299 118.715 161.245 M 116.997 159.166 C 115.4 159.169 114.403 160.899 115.204 162.282 C 116.005 163.665 118.002 163.663 118.799 162.278 C 118.98 161.964 119.076 161.608 119.076 161.245 C 119.075 160.098 118.145 159.168 116.997 159.166" fill="#ffbe00" style=""/>
  <path d="M 110.401 83.619 L 108.977 82.108 C 108.308 82.689 107.437 83.387 106.275 84.229 L 104.153 82.108 L 100.897 78.678 C 102.38 77.427 103.397 76.381 103.891 75.567 C 104.385 74.753 104.647 74.027 104.647 73.299 C 104.647 72.602 104.444 71.991 104.066 71.352 C 103.689 70.771 103.107 70.276 102.351 69.928 C 101.625 69.579 100.839 69.375 99.938 69.375 C 98.543 69.375 97.351 69.753 96.392 70.596 C 95.577 71.294 95.17 72.166 95.17 73.241 C 95.17 73.823 95.315 74.492 95.664 75.16 C 95.984 75.858 96.739 76.905 97.902 78.3 C 95.838 79.928 94.501 81.294 93.804 82.369 C 93.135 83.445 92.786 84.491 92.786 85.567 C 92.786 86.963 93.28 88.154 94.297 89.114 C 95.287 90.044 96.594 90.509 98.25 90.509 C 99.472 90.509 100.663 90.305 101.768 89.869 C 102.902 89.462 104.384 88.503 106.128 87.078 L 108.977 89.985 L 111.943 89.985 C 111.419 89.345 110.809 88.678 110.054 87.95 C 109.095 86.991 108.338 86.293 107.757 85.77 C 108.599 85.188 109.472 84.462 110.402 83.619 L 110.401 83.619 Z M 99.588 77.109 C 98.687 76.119 98.048 75.189 97.583 74.375 C 97.379 74.027 97.263 73.678 97.263 73.3 C 97.263 72.806 97.524 72.341 97.989 71.963 C 98.454 71.614 99.065 71.439 99.821 71.439 C 100.635 71.439 101.304 71.614 101.768 71.963 C 102.234 72.311 102.495 72.748 102.495 73.241 C 102.495 73.649 102.291 74.172 101.914 74.724 C 101.419 75.509 100.606 76.294 99.588 77.109 Z M 101.275 82.079 L 104.646 85.538 C 103.164 86.701 101.856 87.573 100.693 88.039 C 99.967 88.358 99.24 88.532 98.456 88.532 C 97.466 88.532 96.624 88.212 95.926 87.573 C 95.229 86.935 94.909 86.236 94.909 85.422 C 94.909 84.724 95.2 83.969 95.751 83.154 C 96.303 82.34 97.524 81.294 99.327 79.928 C 100.054 80.742 100.722 81.439 101.275 82.079 Z" style="fill: rgb(255, 255, 255);"/>
</svg>