<svg xmlns="http://www.w3.org/2000/svg" xmlns:xlink="http://www.w3.org/1999/xlink"
    width="32" height="32" viewBox="0 0 32 32" fill="none">
    <defs>
        <linearGradient id="security-scs-stage_svg__a" x1="0.165" x2="0.851" y1="0.116" y2="0.864">
            <stop stop-color="#4791FF"></stop>
            <stop offset="1" stop-color="#2E1CF3"></stop>
        </linearGradient>
        <linearGradient id="security-scs-stage_svg__b" x1="0.147" x2="0.801" y1="0.081" y2="0.888">
            <stop stop-color="#FF7F77"></stop>
            <stop offset="0" stop-color="#FD7A64"></stop>
            <stop offset="1" stop-color="#E62D14"></stop>
        </linearGradient>
    </defs>
    <g fill-rule="evenodd" stroke="null" clip-rule="evenodd">
        <path transform="translate(0 -2)" fill="url(#security-scs-stage_svg__a)"
            d="M8.534 6.09C7.04 6.969 4.022 8.72 1.191 9c-.327.032-.602.273-.63.601-.368 4.306.77 12.728 8.079 16.334a.616.616 0 00.493.026c2.007-.776 5.062-3.112 6.777-7.656l-3.343-1.4a.691.691 0 01-.058-.028 3.93 3.93 0 11.498-1.235.666.666 0 01.077.027l3.252 1.363c.606-2.059.943-4.51.837-7.402-.012-.337-.28-.61-.612-.666-1.728-.288-4.854-1.36-7.334-2.862a.675.675 0 00-.693-.01zm-.285 6.297a2.591 2.591 0 101.831 4.848 2.591 2.591 0 00-1.831-4.848z"></path>
        <path transform="translate(0 -2)" fill="url(#security-scs-stage_svg__b)"
            d="M18.22 13.979c.296-1.983.374-3.872.154-4.979H30.92c.3 0 .55.25.562.565.378 10.527-4.839 15.247-7.733 16.4a.507.507 0 01-.42-.024c-3.184-1.633-5.15-4.26-6.316-7.048.294-.78.554-1.675.77-2.61.108.333.289.645.542.91.717.75 1.799.888 2.65.415l1.5 1.507a.706.706 0 00.024.023c-.558.989-.43 2.283.382 3.132a2.393 2.393 0 003.49 0 2.661 2.661 0 000-3.646 2.39 2.39 0 00-2.944-.431.718.718 0 00-.05-.057l-1.478-1.485a2.456 2.456 0 00.186-1.77l1.53-.824c.03.036.062.071.094.106.88.92 2.307.92 3.187 0 .88-.92.88-2.41 0-3.33a2.185 2.185 0 00-3.187 0 2.417 2.417 0 00-.638 1.989l-1.693.912a2.183 2.183 0 00-3.157.245zm1.023.844a.925.925 0 011.348 0c.372.39.372 1.02 0 1.409a.925.925 0 01-1.348 0 1.028 1.028 0 010-1.409zm6.733-3.03a.924.924 0 00-1.348 0 1.028 1.028 0 000 1.41.924.924 0 001.348 0 1.028 1.028 0 000-1.41zm-2.177 7.791a1.132 1.132 0 011.651 0 1.259 1.259 0 010 1.726 1.132 1.132 0 01-1.65 0 1.26 1.26 0 010-1.726z"></path>
    </g>
</svg>