<svg width="24" height="24" viewBox="0 0 24 24" fill="none" xmlns="http://www.w3.org/2000/svg">
<path fill-rule="evenodd" clip-rule="evenodd" d="M18.7554 20.1428L18.7368 20.1428L4.63114 20.1428C2.07335 20.1427 -0.00012207 18.0321 -0.00012207 15.4285C-0.00012207 13.1445 1.59563 11.2399 3.71423 10.8067C3.75751 10.7978 3.78902 10.7592 3.78902 10.7142C3.78902 6.45378 7.18214 3 11.3678 3C15.0087 3 18.05 5.61338 18.7799 9.0978C18.82 9.28937 18.9818 9.43076 19.1736 9.4468C21.8759 9.67275 23.9998 11.9768 23.9998 14.7857C23.9998 17.6722 21.7571 20.0255 18.9486 20.1386C18.9481 20.1386 18.9477 20.1388 18.9474 20.139C18.9469 20.1394 18.9465 20.14 18.9465 20.1407C18.9465 20.1419 18.9456 20.1428 18.9444 20.1428H18.7554ZM8.97438 17.5326C8.97438 16.8786 9.50457 16.3484 10.1586 16.3484H14.603C15.257 16.3484 15.7872 16.8786 15.7872 17.5326C15.7872 18.1866 15.257 18.7168 14.603 18.7168H10.1586C9.50457 18.7168 8.97438 18.1866 8.97438 17.5326ZM10.9644 7.28211C10.4851 6.83708 9.73584 6.86483 9.29081 7.34409C8.84578 7.82335 8.87354 8.57264 9.3528 9.01767L11.875 11.3597L9.3528 13.7018C8.87354 14.1469 8.84578 14.8961 9.29081 15.3754C9.73584 15.8547 10.4851 15.8824 10.9644 15.4374L14.4212 12.2275C14.6625 12.0035 14.7996 11.689 14.7996 11.3597C14.7996 11.0305 14.6625 10.716 14.4212 10.492L10.9644 7.28211Z" fill="url(#paint0_linear_1120_11171)"/>
<defs>
<linearGradient id="paint0_linear_1120_11171" x1="3.97031" y1="5.20161" x2="14.4653" y2="21.5198" gradientUnits="userSpaceOnUse">
<stop stop-color="#4791FF"/>
<stop offset="1" stop-color="#2E1CF3"/>
</linearGradient>
</defs>
</svg>
