<svg width="16" height="17" viewBox="0 0 16 17" fill="none" xmlns="http://www.w3.org/2000/svg">
<path fill-rule="evenodd" clip-rule="evenodd" d="M1.44004 7.15496C0.586635 8.00837 0.586637 9.39202 1.44004 10.2454L6.25476 15.0601C7.10816 15.9135 8.49181 15.9135 9.34522 15.0601L14.1599 10.2454C15.0133 9.39202 15.0133 8.00837 14.1599 7.15496L9.34522 2.34025C8.49181 1.48684 7.10816 1.48684 6.25476 2.34025L1.44004 7.15496ZM8.96462 5.80945C9.01982 5.58495 8.88258 5.3582 8.65808 5.303C8.43358 5.24779 8.20683 5.38503 8.15163 5.60954L6.75628 11.284C6.70107 11.5085 6.83832 11.7352 7.06282 11.7904C7.28732 11.8456 7.51406 11.7084 7.56927 11.4839L8.96462 5.80945ZM5.08063 10.8053C5.2441 10.9688 5.50915 10.9688 5.67263 10.8053C5.8361 10.6418 5.8361 10.3768 5.67263 10.2133L4.12686 8.66754L5.67263 7.12177C5.8361 6.9583 5.8361 6.69325 5.67263 6.52978C5.50915 6.3663 5.2441 6.3663 5.08063 6.52978L3.23886 8.37154C3.07539 8.53502 3.07539 8.80006 3.23886 8.96354L5.08063 10.8053ZM9.97346 10.8518C10.1369 11.0153 10.402 11.0153 10.5655 10.8518L12.4072 9.01005C12.5707 8.84658 12.5707 8.58153 12.4072 8.41805L10.5655 6.57629C10.402 6.41281 10.1369 6.41281 9.97346 6.57629C9.80999 6.73976 9.80999 7.00481 9.97346 7.16828L11.5192 8.71405L9.97346 10.2598C9.80999 10.4233 9.80999 10.6883 9.97346 10.8518Z" fill="url(#paint0_linear_917_3972)"/>
<defs>
<linearGradient id="paint0_linear_917_3972" x1="3.06977" y1="2.87229" x2="11.907" y2="14.2676" gradientUnits="userSpaceOnUse">
<stop stop-color="#73DFE7"/>
<stop offset="1" stop-color="#0095F7"/>
</linearGradient>
</defs>
</svg>
